PathFileType	4	(X/Y/Z)	c:\Git\powerlifing_model_clean\simulations\HC835B\Session1\HC835B_OGW_0003\marker_experimental.trc
DataRate	CameraRate	NumFrames	NumMarkers	Units	OrigDataRate	OrigDataStartFrame	OrigNumFrames
240.000000	240.000000	4	38	mm	240.000000	0	428
Frame#	Time	RPSI			LPSI			RASI			LASI			RTH1			RTH2			RTH3			RTH4			RSK1			RSK2			RSK3			RSK4			RCAL1			RCAL2			RCAL3			RST			RPT			RTN			RFMB			RSMB			RVMB			RFMH			RSMH			RVMH			RPM			LTH1			LTH2			LTH3			LTH4			LSK1			LSK2			LSK3			LSK4			LCAL1			LCAL2			LCAL3			LFMH			LVMH			
		X1	Y1	Z1	X2	Y2	Z2	X3	Y3	Z3	X4	Y4	Z4	X5	Y5	Z5	X6	Y6	Z6	X7	Y7	Z7	X8	Y8	Z8	X9	Y9	Z9	X10	Y10	Z10	X11	Y11	Z11	X12	Y12	Z12	X13	Y13	Z13	X14	Y14	Z14	X15	Y15	Z15	X16	Y16	Z16	X17	Y17	Z17	X18	Y18	Z18	X19	Y19	Z19	X20	Y20	Z20	X21	Y21	Z21	X22	Y22	Z22	X23	Y23	Z23	X24	Y24	Z24	X25	Y25	Z25	X26	Y26	Z26	X27	Y27	Z27	X28	Y28	Z28	X29	Y29	Z29	X30	Y30	Z30	X31	Y31	Z31	X32	Y32	Z32	X33	Y33	Z33	X34	Y34	Z34	X35	Y35	Z35	X36	Y36	Z36	X37	Y37	Z37	X38	Y38	Z38	

1	0	466.685516357422	1100.076293945313	-2587.102783203125	576.6788940429689	1107.137573242188	-2589.775390625	417.6929016113282	1059.286865234375	-2377.029052734375	661.9160156250001	1053.933715820313	-2387.61328125	339.8579711914063	797.1916503906252	-2362.817138671875	349.5978698730469	810.6398925781252	-2304.14794921875	348.8549194335938	732.0821533203126	-2309.661376953125	369.1957397460938	743.3021850585939	-2255.203857421875	388.988494873047	294.3808288574219	-2212.185546875	377.9501342773438	305.0188903808594	-2149.26904296875	391.0530090332032	248.5033111572266	-2175.47119140625	393.7959594726564	258.2568359375001	-2116.51220703125	455.0307922363282	89.28936767578126	-2159.50830078125	489.0508117675782	62.94907760620119	-2133.65478515625	427.0010375976564	51.55599594116212	-2143.718994140625	489.2068786621095	104.3034286499024	-2076.531005859375	392.9221191406251	80.01077270507814	-2096.556884765625	464.3032836914064	139.8665313720703	-2035.168334960938	458.5999145507814	135.4353790283203	-1999.463134765625	407.446502685547	153.7299194335938	-2004.649169921875	379.1062927246094	70.96279144287111	-2046.720581054688	457.5935363769532	127.2778091430664	-1938.064453125	401.0921630859376	140.3060607910157	-1937.952392578125	351.4057006835938	88.25966644287111	-1973.16552734375	402.7254028320314	156.1356658935547	-1883.428588867188	712.8178710937501	797.4880981445315	-2543.436767578125	705.2977294921876	771.7070922851565	-2488.686279296875	700.4121093750001	712.4331665039064	-2544.74951171875	678.5053100585939	689.8279418945314	-2492.34912109375	646.8040771484376	295.6706848144532	-2753.218505859375	652.8088989257814	264.2229919433594	-2709.671142578125	641.1469726562501	238.0230865478516	-2751.388427734375	633.4423828125001	208.8963470458985	-2703.539794921875	577.1934204101564	99.58134460449222	-2842.617431640625	606.9779052734376	63.39653778076173	-2848.254638671875	550.3541870117189	59.32182693481447	-2841.0322265625	567.8151855468751	47.22544097900391	-2616.48046875	668.3354492187501	25.46914672851563	-2667.218505859375	
2	0.004166666666666667	466.2503967285157	1098.314453125	-2579.464599609375	576.1629028320314	1105.554443359375	-2582.3857421875	417.3798828125001	1057.640991210938	-2369.142822265625	661.9075927734376	1052.54931640625	-2380.30029296875	339.7779235839844	794.3435058593752	-2357.0390625	350.1838378906251	807.214538574219	-2298.37939453125	349.1019287109376	728.7407836914064	-2304.54443359375	370.1760864257813	739.3480224609376	-2250.253173828125	389.3339233398439	292.7184753417969	-2199.888671875	379.8778076171876	303.5884399414063	-2138.846435546875	391.4295349121095	247.6918945312501	-2162.103759765625	394.062713623047	259.2938232421876	-2102.92919921875	455.2645568847657	88.24631500244142	-2142.199462890625	489.1785888671876	62.56025314331056	-2115.6279296875	426.9420776367189	51.0185012817383	-2125.534423828125	489.4343261718751	105.355941772461	-2059.49658203125	393.0388793945314	80.86096954345705	-2079.16796875	465.2210083007814	142.7169036865235	-2018.445922851563	458.7974548339845	138.52392578125	-1983.289916992188	407.6495666503907	157.0287017822266	-1989.213256835938	379.0549621582032	73.40213012695314	-2029.164306640625	457.5939941406251	131.9215240478516	-1921.737915039063	401.1424255371095	145.2310943603516	-1922.105102539063	351.2416687011719	92.70659637451173	-1956.103881835938	402.6586914062501	162.3122100830078	-1868.050170898438	712.5682373046876	797.1331787109377	-2537.7333984375	705.5478515625001	770.888610839844	-2483.096435546875	700.3203125000001	711.9793090820314	-2539.490478515625	678.9888916015626	689.0997314453126	-2487.0732421875	646.8389282226564	296.5275268554688	-2750.79296875	652.9959716796876	264.7734375000001	-2707.646728515625	641.1937255859376	238.8666381835938	-2749.4814453125	633.6194458007814	209.3470611572266	-2701.866455078125	577.3322143554689	101.1505126953125	-2841.876220703125	607.0936279296876	64.9666213989258	-2847.7158203125	550.3493652343751	60.81979751586915	-2840.5634765625	567.9515380859376	47.23020935058594	-2616.177001953125	668.3866577148439	25.49695587158204	-2667.13525390625	
3	0.008333333333333333	465.827117919922	1096.552001953125	-2571.798828125	575.6968383789064	1103.866455078125	-2574.935302734375	417.1826782226564	1056.226928710938	-2361.324462890625	661.9480590820314	1051.057861328125	-2372.972900390625	339.4360046386719	791.590270996094	-2351.117431640625	350.6672363281251	803.8876953125002	-2292.443603515625	349.1492919921876	725.4128417968751	-2299.325927734375	370.9247436523438	735.5988159179689	-2245.211181640625	387.4311523437501	293.3235473632813	-2184.697509765625	379.6638793945313	303.8392639160157	-2126.41552734375	391.8223571777345	246.9360046386719	-2149.03271484375	393.3390197753907	260.3264465332032	-2089.37744140625	455.7164611816407	87.4142532348633	-2125.51513671875	489.591522216797	62.25327682495119	-2098.151611328125	427.3670349121095	50.97133255004884	-2107.962646484375	489.9773864746095	106.5501556396485	-2043.2119140625	393.4531250000001	82.00323486328126	-2062.3330078125	465.6699829101564	144.8823394775391	-2002.922729492188	459.136932373047	141.6095581054688	-1967.798706054688	408.0781250000001	160.0624694824219	-1974.255615234375	379.2881164550782	75.69905090332033	-2012.24951171875	457.7449645996095	136.3895416259766	-1906.05419921875	401.338348388672	149.9299926757813	-1906.85302734375	351.2464294433594	96.6746520996094	-1939.804809570313	402.8348693847657	168.3270568847657	-1853.310668945313	712.4341430664064	796.692077636719	-2531.864990234375	705.7727661132814	770.1895751953127	-2477.30859375	700.3557128906251	711.8598632812501	-2533.995361328125	679.3635253906251	687.7767944335939	-2482.069091796875	646.9077148437501	297.4948120117188	-2748.302734375	653.1842041015626	265.3298645019532	-2705.452880859375	641.4148559570314	239.8435821533204	-2747.542236328125	633.8350219726564	209.8632354736329	-2700.191650390625	577.5403442382814	102.7450332641602	-2841.114990234375	607.2443237304689	66.54672241210939	-2847.252685546875	550.5000610351564	62.565975189209	-2840.028076171875	568.0745239257814	47.24971389770509	-2615.86474609375	668.4746704101564	25.44281196594239	-2667.0126953125	
4	0.0125	465.4154357910157	1094.800048828125	-2564.113037109375	575.2095336914064	1102.196166992188	-2567.473388671875	417.082733154297	1054.800659179688	-2353.534423828125	661.8641357421876	1049.750366210938	-2365.444091796875	338.8801269531251	788.9567871093752	-2345.0478515625	350.8648681640626	800.8046875000002	-2286.23779296875	348.9455261230469	722.2537841796876	-2294.024169921875	371.5425720214844	731.7865600585939	-2240.0947265625	387.8441772460939	291.6451721191407	-2173.15966796875	379.7803039550782	303.4802551269532	-2114.835205078125	392.3219604492189	246.0354614257813	-2136.592529296875	393.8187255859376	261.3452148437501	-2076.716064453125	456.6453857421876	86.72468566894533	-2109.39306640625	490.3897399902345	62.28987884521486	-2081.367919921875	428.2559814453126	50.93766403198244	-2091.0068359375	490.5732727050782	107.7698745727539	-2027.326538085938	394.1990966796876	82.97859191894533	-2046.283569335938	466.3830871582032	146.9566345214844	-1987.980590820313	459.8548889160157	144.7546539306641	-1952.876098632813	408.6239624023439	162.9680328369141	-1959.896362304688	379.8447265625001	78.00528717041017	-1996.153198242188	458.1189880371095	140.7928924560547	-1891.08740234375	401.8424377441407	154.3225860595703	-1892.33154296875	351.6591491699219	100.9543533325196	-1924.279174804688	403.1466369628907	174.097885131836	-1839.267211914063	712.4650878906251	796.1712036132815	-2525.896728515625	706.1628417968751	769.3582153320315	-2471.460693359375	700.1768798828126	711.4170532226564	-2528.52978515625	679.8705444335939	686.9925537109376	-2476.493408203125	646.9814453125001	298.4988098144532	-2745.659423828125	653.4064331054689	265.9393310546876	-2703.193603515625	641.5744628906251	240.9413452148438	-2745.528076171875	634.0775756835939	210.1195220947266	-2698.327880859375	577.8187866210939	104.2687377929688	-2840.34375	607.5626220703126	68.28504943847658	-2846.646240234375	550.6437377929689	64.27253723144533	-2839.530029296875	568.2075195312501	47.21308898925782	-2615.54052734375	668.5148315429689	25.43422889709473	-2666.8935546875	
